<svg width="24" height="24" viewBox="0 0 24 24" fill="none" xmlns="http://www.w3.org/2000/svg">
<path fill-rule="evenodd" clip-rule="evenodd" d="M11.4697 12.5303C11.1768 12.2374 11.1768 11.7626 11.4697 11.4697L16.4697 6.46967C16.7626 6.17678 17.2374 6.17678 17.5303 6.46967C17.8232 6.76256 17.8232 7.23744 17.5303 7.53033L13.0607 12L17.5303 16.4697C17.8232 16.7626 17.8232 17.2374 17.5303 17.5303C17.2374 17.8232 16.7626 17.8232 16.4697 17.5303L11.4697 12.5303Z" fill="#1F2937"/>
<path fill-rule="evenodd" clip-rule="evenodd" d="M6.46967 12.5303C6.17678 12.2374 6.17678 11.7626 6.46967 11.4697L11.4697 6.46967C11.7626 6.17678 12.2374 6.17678 12.5303 6.46967C12.8232 6.76256 12.8232 7.23744 12.5303 7.53033L8.06066 12L12.5303 16.4697C12.8232 16.7626 12.8232 17.2374 12.5303 17.5303C12.2374 17.8232 11.7626 17.8232 11.4697 17.5303L6.46967 12.5303Z" fill="#1F2937"/>
</svg>
