<svg width="24" height="24" viewBox="0 0 24 24" fill="none" xmlns="http://www.w3.org/2000/svg">
<path fill-rule="evenodd" clip-rule="evenodd" d="M12.75 12C12.75 12.1989 12.671 12.3897 12.5303 12.5303L7.53033 17.5303C7.23744 17.8232 6.76256 17.8232 6.46967 17.5303C6.17678 17.2374 6.17678 16.7626 6.46967 16.4697L10.9393 12L6.46967 7.53033C6.17678 7.23744 6.17678 6.76256 6.46967 6.46967C6.76256 6.17678 7.23744 6.17678 7.53033 6.46967L12.5303 11.4697C12.671 11.6103 12.75 11.8011 12.75 12Z" fill="#1F2937"/>
<path fill-rule="evenodd" clip-rule="evenodd" d="M17.75 12C17.75 12.1989 17.671 12.3897 17.5303 12.5303L12.5303 17.5303C12.2374 17.8232 11.7626 17.8232 11.4697 17.5303C11.1768 17.2374 11.1768 16.7626 11.4697 16.4697L15.9393 12L11.4697 7.53033C11.1768 7.23744 11.1768 6.76256 11.4697 6.46967C11.7626 6.17678 12.2374 6.17678 12.5303 6.46967L17.5303 11.4697C17.671 11.6103 17.75 11.8011 17.75 12Z" fill="#1F2937"/>
</svg>
