<svg width="24" height="24" viewBox="0 0 24 24" fill="none" xmlns="http://www.w3.org/2000/svg">
<path fill-rule="evenodd" clip-rule="evenodd" d="M3.04868 3.68263C3.58694 3.14885 4.31566 2.8501 5.07419 2.8501H8.78007C9.19429 2.8501 9.53007 3.18588 9.53007 3.6001C9.53007 4.01431 9.19429 4.3501 8.78007 4.3501H5.07419C4.70945 4.3501 4.3609 4.49384 4.10489 4.74772C3.8491 5.00138 3.70654 5.34409 3.70654 5.7001V18.3001C3.70654 18.6561 3.8491 18.9988 4.10489 19.2525C4.3609 19.5064 4.70945 19.6501 5.07419 19.6501H8.78007C9.19429 19.6501 9.53007 19.9859 9.53007 20.4001C9.53007 20.8143 9.19429 21.1501 8.78007 21.1501H5.07419C4.31566 21.1501 3.58694 20.8513 3.04868 20.3176C2.51021 19.7836 2.20654 19.058 2.20654 18.3001V5.7001C2.20654 4.9422 2.51021 4.21662 3.04868 3.68263ZM15.9401 6.65777C16.2396 6.37166 16.7143 6.38252 17.0004 6.68204L21.5856 11.482C21.8625 11.7719 21.8625 12.2283 21.5856 12.5182L17.0004 17.3182C16.7143 17.6177 16.2396 17.6285 15.9401 17.3424C15.6405 17.0563 15.6297 16.5816 15.9158 16.282L19.2896 12.7501H9.04326C8.62905 12.7501 8.29326 12.4143 8.29326 12.0001C8.29326 11.5859 8.62905 11.2501 9.04326 11.2501H19.2896L15.9158 7.71815C15.6297 7.41863 15.6405 6.94388 15.9401 6.65777Z" fill="#1F2937"/>
</svg>
