<svg width="24" height="24" viewBox="0 0 24 24" fill="none" xmlns="http://www.w3.org/2000/svg">
<path fill-rule="evenodd" clip-rule="evenodd" d="M11.9998 4.05005C12.414 4.05005 12.7498 4.38584 12.7498 4.80005V11.25H19.1998C19.614 11.25 19.9498 11.5858 19.9498 12C19.9498 12.4143 19.614 12.75 19.1998 12.75H12.7498V19.2C12.7498 19.6143 12.414 19.95 11.9998 19.95C11.5856 19.95 11.2498 19.6143 11.2498 19.2L11.2498 12.75H4.7998C4.38559 12.75 4.0498 12.4143 4.0498 12C4.0498 11.5858 4.38559 11.25 4.7998 11.25H11.2498L11.2498 4.80005C11.2498 4.38584 11.5856 4.05005 11.9998 4.05005Z" fill="#1F2937"/>
</svg>
