<svg width="48" height="48" viewBox="0 0 48 48" fill="none" xmlns="http://www.w3.org/2000/svg">
<path fill-rule="evenodd" clip-rule="evenodd" d="M13.3921 16H15.7576C16.8621 16 17.7576 16.8954 17.7576 18C17.7576 19.1046 16.8621 20 15.7576 20H8C6.89543 20 6 19.1046 6 18V10C6 8.89543 6.89543 8 8 8C9.10457 8 10 8.89543 10 10V13.8772C13.1405 9.14057 18.443 6 24.4848 6C34.2158 6 42 14.1173 42 24C42 33.8827 34.2158 42 24.4848 42C16.6799 42 10.1188 36.7673 7.83676 29.6073C7.50133 28.5549 8.08256 27.4299 9.13497 27.0944C10.1874 26.759 11.3124 27.3402 11.6479 28.3927C13.4377 34.0084 18.5386 38 24.4848 38C31.8915 38 38 31.7904 38 24C38 16.2096 31.8915 10 24.4848 10C19.9126 10 15.8463 12.3552 13.3921 16Z" fill="#1F2937"/>
</svg>
