<svg width="48" height="48" viewBox="0 0 48 48" fill="none" xmlns="http://www.w3.org/2000/svg">
<path d="M8 32C9.10457 32 10 32.8954 10 34C10 35.1046 9.10457 36 8 36C6.89543 36 6 35.1046 6 34C6 32.8954 6.89543 32 8 32ZM40 32C41.1046 32 42 32.8954 42 34C42 35.1046 41.1046 36 40 36H16C14.8954 36 14 35.1046 14 34C14 32.8954 14.8954 32 16 32H40ZM8 22C9.10457 22 10 22.8954 10 24C10 25.1046 9.10457 26 8 26C6.89543 26 6 25.1046 6 24C6 22.8954 6.89543 22 8 22ZM40 22C41.1046 22 42 22.8954 42 24C42 25.1046 41.1046 26 40 26H16C14.8954 26 14 25.1046 14 24C14 22.8954 14.8954 22 16 22H40ZM8 12C9.10457 12 10 12.8954 10 14C10 15.1046 9.10457 16 8 16C6.89543 16 6 15.1046 6 14C6 12.8954 6.89543 12 8 12ZM40 12C41.1046 12 42 12.8954 42 14C42 15.1046 41.1046 16 40 16H16C14.8954 16 14 15.1046 14 14C14 12.8954 14.8954 12 16 12H40Z" fill="#1F2937"/>
</svg>
