<svg width="24" height="24" viewBox="0 0 24 24" fill="none" xmlns="http://www.w3.org/2000/svg">
<path fill-rule="evenodd" clip-rule="evenodd" d="M8.25 3C8.25 2.58579 8.58579 2.25 9 2.25H15C15.4142 2.25 15.75 2.58579 15.75 3C15.75 3.41421 15.4142 3.75 15 3.75H9C8.58579 3.75 8.25 3.41421 8.25 3ZM3.25 6.17647C3.25 5.76226 3.58579 5.42647 4 5.42647H20C20.4142 5.42647 20.75 5.76226 20.75 6.17647C20.75 6.59068 20.4142 6.92647 20 6.92647H18.6814C18.7025 7.05122 18.7111 7.17931 18.706 7.30887L18.25 18.8982C18.2418 20.4342 17.0533 21.75 15.5 21.75H8.5C6.94673 21.75 5.75815 20.4342 5.75004 18.8982L5.29398 7.30887C5.28888 7.17931 5.29748 7.05122 5.31862 6.92647H4C3.58579 6.92647 3.25 6.59068 3.25 6.17647ZM7.04253 6.92647C6.94188 6.92647 6.78418 7.03042 6.79282 7.24988L7.25 18.8676V18.8824C7.25 19.6787 7.84946 20.25 8.5 20.25H15.5C16.1505 20.25 16.75 19.6787 16.75 18.8824V18.8676L17.2072 7.24988C17.2158 7.03042 17.0581 6.92647 16.9575 6.92647H7.04253ZM10 9.66177C10.4142 9.66177 10.75 9.99755 10.75 10.4118V16.7647C10.75 17.1789 10.4142 17.5147 10 17.5147C9.58579 17.5147 9.25 17.1789 9.25 16.7647V10.4118C9.25 9.99755 9.58579 9.66177 10 9.66177ZM14 9.66177C14.4142 9.66177 14.75 9.99755 14.75 10.4118V16.7647C14.75 17.1789 14.4142 17.5147 14 17.5147C13.5858 17.5147 13.25 17.1789 13.25 16.7647V10.4118C13.25 9.99755 13.5858 9.66177 14 9.66177Z" fill="#1F2937"/>
</svg>
